<?xml version="1.0" encoding="utf-8"?>
<!-- Generator: Adobe Illustrator 24.3.0, SVG Export Plug-In . SVG Version: 6.00 Build 0)  -->
<svg version="1.1" id="Layer_1" xmlns="http://www.w3.org/2000/svg" xmlns:xlink="http://www.w3.org/1999/xlink" x="0px" y="0px"
	 viewBox="0 0 844.5 544.6" style="enable-background:new 0 0 844.5 544.6;" xml:space="preserve">
<style type="text/css">
	.st0{fill:#F2F2F2;}
	.st1{fill:#A0616A;}
	.st2{fill:#2F2E41;}
	.st3{fill:#FFFFFF;}
	.st4{fill:#F0F0F0;}
	.st5{fill:#CACACA;}
	.st6{fill:#3F3D56;}
	.st7{fill:#CCCCCC;}
	.st8{fill:#22C55E;}
	.st9{fill:#E4E4E4;}
	.st10{fill:#FFB6B6;}
	.st11{fill:#FFB7B7;}
</style>
<path class="st0" d="M753.4,521.3l13.9,0.4c3.9-6.2,6.2-13.2,6.8-20.5c-8.9,9.4-24.6,7.1-36.1,13.1c-7.2,3.9-12.3,10.8-13.8,18.8
	l-5.7,8c12.8,3.2,26.4,0.7,37.2-6.9c3-2.1,5.7-4.7,8-7.5C758.4,524.4,753.4,521.3,753.4,521.3z"/>
<path class="st0" d="M745.8,500.2l12.6-5.9c0.7-7.3-0.3-14.6-3.1-21.3c-3.8,12.4-18.9,17.3-26.5,27.8c-4.8,6.7-6.2,15.1-4,23
	l-1.5,9.7c12.9-2.8,24-11.1,30.2-22.8c1.7-3.2,3-6.7,3.8-10.3C751.6,500.7,745.8,500.2,745.8,500.2z"/>
<polygon class="st1" points="725.1,533.9 716.6,533.9 712.5,501.1 725.1,501.1 "/>
<path class="st2" d="M724.9,531.2l-9.1-3.7l-0.3-0.1l-5,3.8c-5.7,0-10.4,4.5-10.7,10.2c0,0.2,0,0.3,0,0.5v0.4h27.5v-11L724.9,531.2z
	"/>
<polygon class="st1" points="708.9,517 701.5,521.3 681.4,495 692.2,488.6 "/>
<path class="st2" d="M713.9,521.3l-1-1.7l-3.6-6.1l-1.9,1.1l-0.2,0.1l-9.7,1.4l-0.3,0l-2.4,5.8c-5.1,3-6.8,9.5-3.8,14.6c0,0,0,0,0,0
	l0.2,0.3l23.7-13.9L713.9,521.3z"/>
<path class="st2" d="M735.9,333.1c4,12,3.6,25.1-1,39.1l-1.2,48.2l-3.8,30.4c2.3,6,3.5,12.3,3.5,18.7c0,16.7-1.1,40.5-6.8,51.7H713
	l-3-49.8l-3.6-25l-0.4-26.8l-0.4-23.4l-14.7,21.5l-14.3,20.9l14.2,23.9l12.4,38.5l-13.1,11L675.2,484l-7.2-8.3l-19.6-42.4l1.8-5.9
	c3.6-12.2,8.9-23.8,15.7-34.5l0,0l19.5-45.3L735.9,333.1z"/>
<path class="st3" d="M510.9,342.1h-268c-4.5,0-8.1-3.6-8.1-8.1V129.2c0-4.5,3.6-8.1,8.1-8.1h268c4.5,0,8.1,3.6,8.1,8.1V334
	C519,338.5,515.4,342.1,510.9,342.1z"/>
<path class="st4" d="M510.9,343.1h-268c-5,0-9.1-4.1-9.1-9.1V129.2c0-5,4.1-9.1,9.1-9.1h268c5,0,9.1,4.1,9.1,9.1V334
	C520,339,515.9,343.1,510.9,343.1z M242.9,122.1c-3.9,0-7.1,3.2-7.1,7.1V334c0,3.9,3.2,7.1,7.1,7.1h268c3.9,0,7.1-3.2,7.1-7.1V129.2
	c0-3.9-3.2-7.1-7.1-7.1L242.9,122.1z"/>
<path class="st4" d="M235.5,303.1V334c0,4.1,3.3,7.4,7.4,7.4h268c4.1,0,7.4-3.3,7.4-7.4v-30.9H235.5z"/>
<rect x="376.9" y="46.4" transform="matrix(0.5392 -0.8422 0.8422 0.5392 -5.3817 416.4995)" class="st4" width="2" height="333.6"/>
<path class="st5" d="M697.9,36.6H65.5c-0.6,0-1-0.5-1-1c0-0.5,0.4-1,1-1h632.3c0.6,0,1,0.5,1,1C698.8,36.1,698.4,36.5,697.9,36.6z"
	/>
<ellipse class="st6" cx="87.9" cy="11.2" rx="10.9" ry="11.2"/>
<ellipse class="st6" cx="125.6" cy="11.2" rx="10.9" ry="11.2"/>
<ellipse class="st6" cx="163.4" cy="11.2" rx="10.9" ry="11.2"/>
<path class="st6" d="M675.2,2.8h-26.8c-1.1,0-2,0.9-2,2.1c0,1.1,0.9,2,2,2h26.8c1.1,0,2-0.9,2-2.1C677.2,3.7,676.3,2.8,675.2,2.8z"
	/>
<path class="st6" d="M675.2,10.4h-26.8c-1.1,0-2,0.9-2,2.1c0,1.1,0.9,2,2,2h26.8c1.1,0,2-0.9,2-2.1
	C677.2,11.3,676.3,10.4,675.2,10.4z"/>
<path class="st6" d="M675.2,18h-26.8c-1.1,0-2,0.9-2,2.1c0,1.1,0.9,2,2,2h26.8c1.1,0,2-0.9,2-2.1C677.2,18.9,676.3,18,675.2,18z"/>
<path class="st1" d="M601.8,275.3c2.2,2.9,6.4,3.5,9.3,1.3c0.3-0.2,0.6-0.5,0.9-0.8l21.6,9.4l-2.1-12l-20.2-7.1
	c-2.9-2.3-7.1-1.9-9.4,1C599.9,269.4,599.9,272.9,601.8,275.3L601.8,275.3z"/>
<path class="st6" d="M621.4,268.5l41.2,5.3l42.5-25.6c8.9-5.4,20.4-2.5,25.8,6.4c0.4,0.6,0.7,1.3,1,2l0,0c4.1,9.1,0.4,19.8-8.4,24.4
	l-57.1,20.3l-0.1,0L616.2,279L621.4,268.5z"/>
<path class="st6" d="M681.5,340.4l3.4-8.6l-2.3-7.4l6.7-73.4l0,0l1-11.1l0.1-8.3l22.9-0.6l2.5,6.3l4.9,2.9
	c10.9,6.6,17.5,18.4,17.3,31.2l-0.9,48.1l2.3,4.6c2.4,4.8,0.5,10.5-4.3,12.9c-0.4,0.2-0.9,0.4-1.4,0.6l-50.4,15.3L681.5,340.4z"/>
<circle class="st1" cx="699.8" cy="202.4" r="20.8"/>
<path class="st2" d="M721.6,207c0.6-2.6,0.3-6.3,0-8.9c-0.9-7-4.8-13.4-10.6-17.4c-1.1-0.8-2.4-1.4-3.8-1.5c-1.4-0.1-2.7,0.7-3.3,2
	c-0.7-1.8-2.1-3.1-3.9-3.8c-1.7-0.7-3.6-0.9-5.5-0.7c-7.4,0.6-13.8,5.2-16.8,12c-0.6,1.3-2.1-3.6-2.8-2.3c-0.6,1.3-1.8,2.3-3.2,2.8
	c-1.4,0.4-1.9,6.1-2.5,4.8c-1.4,3.2,0.1,6.9,3.3,8.3c0.9,0.4,1.8,0.5,2.7,0.5c1.4-0.2,2.8-0.4,4.1-0.8c5.2-0.7,10,2.7,11.3,7.7
	c0.4-1.4,1-2.8,1.8-4c0.8-1.2,2.2-2,3.7-2c1.4,0.2,2.7,0.9,3.6,2.1c0.9,1.1,1.6,2.3,2.5,3.4c2.7,3.1,6.4,10.5,10.2,9.9
	C715.7,218.4,720.7,210.5,721.6,207z"/>
<path class="st1" d="M761.1,378.2c2-3,1.2-7.1-1.8-9.2c-0.3-0.2-0.7-0.4-1-0.6l1.9-23.4l-10.7,5.9l-0.1,21.4c-1.3,3.5,0.5,7.3,4,8.5
	C756.2,381.8,759.4,380.8,761.1,378.2L761.1,378.2z"/>
<path class="st6" d="M748.3,361.8l-8.3-40.7l-38-31.9c-7.9-6.7-9-18.5-2.3-26.5c0.5-0.6,1-1.1,1.5-1.6l0,0
	c7.3-6.8,18.6-6.8,25.8,0.1l37.8,47.4l0.1,0.1l-4.9,54.6L748.3,361.8z"/>
<path class="st7" d="M843.3,544.6h-348c-0.7,0-1.2-0.5-1.2-1.2s0.5-1.2,1.2-1.2c0,0,0,0,0,0h348c0.7,0,1.2,0.5,1.2,1.2
	S844,544.6,843.3,544.6C843.3,544.6,843.3,544.6,843.3,544.6z"/>
<path class="st8" d="M618.4,351H460.3c-2.3,0-4.2-1.9-4.2-4.2v-64.2c0-2.3,1.9-4.2,4.2-4.2h158.1c2.3,0,4.2,1.9,4.2,4.2v64.2
	C622.6,349.1,620.7,350.9,618.4,351z"/>
<path class="st9" d="M603.4,381.7h-128c-2.8,0-5-2.2-5-5c0-2.8,2.2-5,5-5c0,0,0,0,0,0h128C609.8,371.7,609.9,381.8,603.4,381.7z"/>
<path class="st9" d="M603.4,404.6h-128c-2.8,0-5-2.2-5-5c0-2.7,2.2-5,5-5h128C609.8,394.5,609.9,404.7,603.4,404.6z"/>
<path class="st9" d="M603.4,427.5h-128c-2.8,0-5-2.2-5-5c0-2.8,2.2-5,5-5c0,0,0,0,0,0h128C609.8,417.4,609.9,427.5,603.4,427.5z"/>
<path class="st0" d="M208.9,464.4l13.2-4.2c1.7-7.1,1.5-14.5-0.3-21.6c-5.3,11.8-20.9,14.7-29.8,24.2c-5.6,6-8.1,14.2-6.9,22.3
	l-2.8,9.5c13.2-1.1,25.2-8,32.9-18.7c2.1-3,3.8-6.3,5.1-9.7C214.7,465.6,208.9,464.4,208.9,464.4z"/>
<path class="st0" d="M194.7,446.9l10-9.7c-1.7-7.1-5.1-13.7-9.9-19.2c0.5,13-12.2,22.5-15.9,34.9c-2.3,7.9-0.9,16.3,3.8,23.1
	l1.7,9.7c11.3-6.9,19-18.4,21.1-31.4c0.5-3.6,0.6-7.3,0.3-10.9C200.5,445.4,194.7,446.9,194.7,446.9z"/>
<path class="st10" d="M221.4,267c-4.1,0.6-7.9-2.3-8.5-6.5c-0.1-0.4-0.1-0.9-0.1-1.3l-48.1-48.8l13.4-9.3l43.1,50.9
	c4.2,0.5,7.1,4.2,6.7,8.3C227.6,263.8,224.9,266.5,221.4,267z"/>
<path class="st8" d="M150,189.3c0,0-3.4,2,2.3,8.3c4.5,5,24.4,28.9,32.3,33.9c-0.9,2.5,21,26.3,23.3,27.9l12.2-15.2
	c-0.7-4.4-24.6-25.1-26.3-24.6l-7.6-9.5l-17.3-29l-16.4,6.7L150,189.3z"/>
<polygon class="st10" points="112,480.1 121.1,480.1 125.4,445.1 112,445.1 "/>
<path class="st2" d="M109.1,473.8l14.5-0.9v6.2l13.8,9.5c1.8,1.2,2.2,3.6,1,5.4c-0.7,1-1.9,1.7-3.2,1.7h-17.2l-3-6.1l-1.2,6.1h-6.5
	L109.1,473.8z"/>
<polygon class="st10" points="163,480.1 172,480.1 176.4,445.1 163,445.1 "/>
<path class="st2" d="M160,473.8l14.5-0.9v6.2l13.8,9.5c1.8,1.2,2.2,3.6,1,5.4c-0.7,1-1.9,1.7-3.2,1.7h-17.2l-3-6.1l-1.2,6.1h-6.5
	L160,473.8z"/>
<path class="st2" d="M108.1,449.9L108.1,449.9L110,393c-2.3-4.4-2.2-9.7,0.2-14.1l0.2-0.5l-0.6-3c-0.8-3.9-0.4-7.9,1.1-11.5l1.6-53
	c-5.8-37.7,21.9-62.2,21.9-62.2l-5.1-21.3l50.1-4.9l-3.6,26.2l8.9,30.6c5.9,57.4,4.8,113.3-4.5,167.4l0.3,0.1
	c0.9,0.3,1.3,1.6,0.9,2.8s-1.5,2-2.4,1.7l-21.9-0.8c-0.9-0.3-1.3-1.6-0.9-2.8c0.4-1.3,1.5-2,2.4-1.7l1.5,0.8l-3.2-54.9l0.4-10
	l-0.7-11.4l-3.4-51.1l-12.7,62.9l-13,68.1c1,0.9,1.1,2.4,0.2,3.4c-0.5,0.5-1.1,0.8-1.8,0.8h-17.7c-1.3,0-2.4-1.1-2.4-2.4
	C105.7,451,106.8,449.9,108.1,449.9L108.1,449.9z"/>
<path class="st8" d="M169.7,173.9l-9.9-5.9l-19.7-2l-17.4,8.9l0.2,27.1l11.1,28.1l43.1,8.9l5-24.7c0,0,12.8-17.2-1-27.1L169.7,173.9
	z"/>
<path class="st10" d="M127.5,290.9c-3.5-2.2-4.6-6.8-2.5-10.4c0.2-0.4,0.5-0.7,0.8-1.1l-6.4-68.2l16.3,1.3l1.1,66.7
	c2.9,3,2.9,7.8-0.1,10.7C134.3,292.3,130.4,292.7,127.5,290.9z"/>
<path class="st8" d="M123.3,175.1c0,0-3.9-0.6-3.5,7.8c0.4,6.7-1.4,48.2,1.6,57.1c-2.2,1.4-2.4,35.2-1.5,37.8l19-4.1
	c2.2-3.8,0.8-38.7-0.9-39.4l0.1-12.2l4.2-40.1l-16.2-6.6L123.3,175.1z"/>
<path class="st8" d="M220.5,297.2c-1-1.3-1.4-2.9-1.1-4.5c1.9-9.4,1.9-19,0-28.4c-0.3-1.6,0.1-3.3,1.1-4.5c1-1.2,2.5-1.9,4-1.9
	c8.3-3.3,16.2-3.3,23.6,0c2.6,0,4.8,2,5.2,4.6c1.4,10.6,1.4,21.4,0,32.1c-0.4,2.6-2.6,4.6-5.3,4.6h-23.4
	C223,299.1,221.5,298.4,220.5,297.2z"/>
<path class="st3" d="M227.1,270.1h19.7c0.7,0,1.2-0.6,1.2-1.2c0-0.7-0.6-1.2-1.2-1.2h-19.7c-0.7,0-1.2,0.6-1.2,1.2
	C225.8,269.5,226.4,270.1,227.1,270.1z"/>
<path class="st3" d="M227.1,280h19.7c0.7,0,1.2-0.6,1.2-1.2c0-0.7-0.6-1.2-1.2-1.2h-19.7c-0.7,0-1.2,0.6-1.2,1.2
	C225.8,279.4,226.4,279.9,227.1,280z"/>
<path class="st3" d="M227.1,289.8h19.7c0.7,0,1.2-0.6,1.2-1.2c0-0.7-0.6-1.2-1.2-1.2l0,0h-19.7c-0.7,0-1.2,0.6-1.2,1.2
	C225.8,289.3,226.4,289.8,227.1,289.8z"/>
<path class="st7" d="M282.7,495.4c0,0.7-0.5,1.2-1.2,1.2c0,0,0,0,0,0H1.2c-0.7,0-1.2-0.5-1.2-1.2s0.5-1.2,1.2-1.2h280.3
	C282.1,494.2,282.7,494.7,282.7,495.4C282.7,495.4,282.7,495.4,282.7,495.4z"/>
<path id="a0ad7a78-ce9c-4e5a-964d-79d0781968c2-176" class="st2" d="M168.4,155.9v-18.4c0-13.6-11-24.6-24.6-24.6
	c-13.6,0-24.6,11-24.6,24.6c0,0,0,0,0,0v0c-4.3,9-1.6,13.3,0,18.4c0,1.8,1.5,3.3,3.3,3.3h42.6C166.9,159.2,168.4,157.7,168.4,155.9z
	"/>
<circle class="st11" cx="151.9" cy="139.6" r="18.4"/>
<path class="st2" d="M132.6,144.4c0.2,0,0.3-0.1,0.5-0.1c2.9-0.5,5.7-1,8.6-1.5l0.3-6.5l3.5,5.8c7.9,2.6,15.3,1.1,22.3-2.1
	c2.3-1.1,4.5-2.3,6.7-3.7c-1.2-7.3-5.6-13.6-12-17.3c-0.3-0.1-0.5-0.3-0.8-0.4c0,0,0,0,0,0c0,0,0,0,0,0c-0.4-0.2-0.9-0.4-1.4-0.6
	c-7.3-2.9-15.6-1.2-21.3,4.1C133.4,127.5,130.8,136.4,132.6,144.4z"/>
</svg>
